<svg xmlns="http://www.w3.org/2000/svg" width="23.483" height="21.677" viewBox="0 0 23.483 21.677">
  <g id="Icon_ionic-ios-calendar" data-name="Icon ionic-ios-calendar" transform="translate(-3.375 -4.5)">
    <path id="Контур_16" data-name="Контур 16" d="M24.6,6.75H22.342V8.1a.453.453,0,0,1-.452.452h-.9a.453.453,0,0,1-.452-.452V6.75H9.7V8.1a.453.453,0,0,1-.452.452h-.9A.453.453,0,0,1,7.891,8.1V6.75H5.633A2.265,2.265,0,0,0,3.375,9.008V24.362A2.265,2.265,0,0,0,5.633,26.62H24.6a2.265,2.265,0,0,0,2.258-2.258V9.008A2.265,2.265,0,0,0,24.6,6.75Zm.452,16.935a1.132,1.132,0,0,1-1.129,1.129H6.31a1.132,1.132,0,0,1-1.129-1.129V13.524a.453.453,0,0,1,.452-.452H24.6a.453.453,0,0,1,.452.452Z" transform="translate(0 -0.444)" fill="currentColor"/>
    <path id="Контур_17" data-name="Контур 17" d="M10.806,4.952a.453.453,0,0,0-.452-.452h-.9A.453.453,0,0,0,9,4.952V6.306h1.806Z" transform="translate(-1.109)" fill="currentColor"/>
    <path id="Контур_18" data-name="Контур 18" d="M26.556,4.952A.453.453,0,0,0,26.1,4.5h-.9a.453.453,0,0,0-.452.452V6.306h1.806Z" transform="translate(-4.214)" fill="currentColor"/>
  </g>
</svg>
