<svg xmlns="http://www.w3.org/2000/svg" width="22" height="22" viewBox="0 0 22 22">
  <g id="Icon_feather-copy" data-name="Icon feather-copy" transform="translate(-1 -1)">
    <path id="Контур_37" data-name="Контур 37" d="M11,9h9a2,2,0,0,1,2,2v9a2,2,0,0,1-2,2H11a2,2,0,0,1-2-2V11A2,2,0,0,1,11,9Z" fill="none" stroke="currentColor" stroke-linecap="round" stroke-linejoin="round" stroke-width="2"/>
    <path id="Контур_38" data-name="Контур 38" d="M5,15H4a2,2,0,0,1-2-2V4A2,2,0,0,1,4,2h9a2,2,0,0,1,2,2V5" fill="none" stroke="currentColor" stroke-linecap="round" stroke-linejoin="round" stroke-width="2"/>
  </g>
</svg>
