<svg xmlns="http://www.w3.org/2000/svg" width="23.727" height="34.512" viewBox="0 0 23.727 34.512">
  <path id="Icon_awesome-microphone" data-name="Icon awesome-microphone" d="M11.863,23.727a6.471,6.471,0,0,0,6.471-6.471V6.471a6.471,6.471,0,0,0-12.942,0V17.256A6.471,6.471,0,0,0,11.863,23.727ZM22.648,12.942H21.57a1.078,1.078,0,0,0-1.078,1.078v3.235A8.638,8.638,0,0,1,11,25.842a8.89,8.89,0,0,1-7.766-8.97V14.02a1.078,1.078,0,0,0-1.078-1.078H1.078A1.078,1.078,0,0,0,0,14.02v2.707A12.235,12.235,0,0,0,10.246,28.974v2.3H6.471a1.078,1.078,0,0,0-1.078,1.078v1.078a1.078,1.078,0,0,0,1.078,1.078H17.256a1.078,1.078,0,0,0,1.078-1.078V32.355a1.078,1.078,0,0,0-1.078-1.078H13.481V29A11.875,11.875,0,0,0,23.727,17.256V14.02A1.078,1.078,0,0,0,22.648,12.942Z" fill="currentColor"/>
</svg>
