<svg xmlns="http://www.w3.org/2000/svg" width="24.056" height="16.332" viewBox="0 0 24.056 16.332">
  <g id="Icon_ionic-ios-swap" data-name="Icon ionic-ios-swap" transform="translate(-2.257 -7.31)">
    <path id="Контур_1" data-name="Контур 1" d="M24.177,16.031a.7.7,0,0,1-.005-.988l2.536-2.573H14.62a.7.7,0,0,1,0-1.4H26.7L24.166,8.5a.7.7,0,1,1,.994-.983l3.707,3.76h0a.683.683,0,0,1,.145.22.667.667,0,0,1,.054.269.7.7,0,0,1-.2.489l-3.707,3.76A.691.691,0,0,1,24.177,16.031Z" transform="translate(-2.753 0)" fill="currentColor"/>
    <path id="Контур_2" data-name="Контур 2" d="M7.146,25.734a.7.7,0,0,0,.005-.988l-2.53-2.573H16.7a.7.7,0,1,0,0-1.4H4.621L7.156,18.2a.7.7,0,1,0-.994-.983l-3.707,3.76h0a.683.683,0,0,0-.145.22.667.667,0,0,0-.054.269.7.7,0,0,0,.2.489l3.707,3.76A.691.691,0,0,0,7.146,25.734Z" transform="translate(0 -2.29)" fill="currentColor"/>
  </g>
</svg>
